{"title":"Tony Esposito - Kalimba De Luna","uid":6630633,"size":179412992,"categoryP":"video","categoryS":"music_videos","magnet":"?xt=urn:btih:73a3c8ccf4ce1ac984eace50e1b4e0d0c0d8b9f8&amp;dn=Tony+Esposito+-+Kalimba+De+Luna&amp;tr=udp%3A%2F%2Ftracker.openbittorrent.com%3A80&amp;tr=udp%3A%2F%2Fopen.demonii.com%3A1337&amp;tr=udp%3A%2F%2Ftracker.coppersurfer.tk%3A6969&amp;tr=udp%3A%2F%2Fexodus.desync.com%3A6969","seeders":1,"leechers":0,"uploader":"piter1970","files":1,"time":1314355666,"description":"General\nComplete name                    : Tony Esposito - Kalimba De Luna.mpg\nFormat                           : MPEG-PS\nFile size                        : 171 MiB\nDuration                         : 3mn 46s\nOverall bit rate                 : 6 333 Kbps\n\nVideo\nID                               : 224 (0xE0)\nFormat                           : MPEG Video\nFormat version                   : Version 2\nFormat profile                   : Main@Main\nFormat settings, BVOP            : Yes\nFormat settings, Matrix          : Default\nFormat settings, GOP             : M=3, N=12\nDuration                         : 3mn 46s\nBit rate mode                    : Variable\nBit rate                         : 5 983 Kbps\nNominal bit rate                 : 9 500 Kbps\nWidth                            : 720 pixels\nHeight                           : 576 pixels\nDisplay aspect ratio             : 4:3\nFrame rate                       : 25.000 fps\nStandard                         : PAL\nColor space                      : YUV\nChroma subsampling               : 4:2:0\nBit depth                        : 8 bits\nScan type                        : Interlaced\nScan order                       : Bottom Field First\nBits/(Pixel*Frame)               : 0.577\nStream size                      : 162 MiB (94%)\n\nAudio\nID                               : 192 (0xC0)\nFormat                           : MPEG Audio\nFormat version                   : Version 1\nFormat profile                   : Layer 2\nDuration                         : 3mn 46s\nBit rate mode                    : Constant\nBit rate                         : 224 Kbps\nChannel(s)                       : 2 channels\nSampling rate                    : 48.0 KHz\nStream size                      : 6.05 MiB (4%)\n\nMenu\n\n","torrent":{"xt":"urn:btih:73a3c8ccf4ce1ac984eace50e1b4e0d0c0d8b9f8","amp;dn":"Tony+Esposito+-+Kalimba+De+Luna","amp;tr":["udp%3A%2F%2Ftracker.openbittorrent.com%3A80","udp%3A%2F%2Fopen.demonii.com%3A1337","udp%3A%2F%2Ftracker.coppersurfer.tk%3A6969","udp%3A%2F%2Fexodus.desync.com%3A6969"],"infoHash":"73a3c8ccf4ce1ac984eace50e1b4e0d0c0d8b9f8","infoHashBuffer":{"type":"Buffer","data":[115,163,200,204,244,206,26,201,132,234,206,80,225,180,224,208,192,216,185,248]},"announce":[],"urlList":[]}}